<svg id="Layer_1" data-name="Layer 1" xmlns="http://www.w3.org/2000/svg" viewBox="0 0 512 512"><defs><style>.cls-1{fill:#563d35;}.cls-1,.cls-2,.cls-3{fill-rule:evenodd;}.cls-2{fill:#332420;}.cls-3{fill:#ffa840;}</style></defs><title>briefcase-flat</title><path class="cls-1" d="M448.9,102.4H345.6V88.8a50.55,50.55,0,0,0-50.4-50.4H216.8a50.55,50.55,0,0,0-50.4,50.4v13.6H63.1A63.1,63.1,0,0,0,0,165.5v61.76A63.07,63.07,0,0,0,25.6,278V409.6a64.19,64.19,0,0,0,64,64H422.4a64.19,64.19,0,0,0,64-64V278A63.07,63.07,0,0,0,512,227.26V165.5A63.1,63.1,0,0,0,448.9,102.4ZM192,88.8A24.83,24.83,0,0,1,216.8,64h78.4A24.83,24.83,0,0,1,320,88.8v13.6H192Z"/><path class="cls-2" d="M458.26,289.66,265.36,318.6a63.08,63.08,0,0,1-18.72,0L53.74,289.66A62.89,62.89,0,0,1,25.6,278v25.53a62.81,62.81,0,0,0,28.14,11.72l192.9,28.93a63.08,63.08,0,0,0,18.72,0l192.9-28.93a62.81,62.81,0,0,0,28.14-11.72V278A62.89,62.89,0,0,1,458.26,289.66Z"/><path class="cls-3" d="M256,358.4h0A38.51,38.51,0,0,1,217.6,320V294.4A38.51,38.51,0,0,1,256,256h0a38.51,38.51,0,0,1,38.4,38.4V320A38.51,38.51,0,0,1,256,358.4Z"/></svg>